PathFileType	4	(X/Y/Z)	RBDS024\RBDS024runT45.trc
DataRate	CameraRate	NumFrames	NumMarkers	Units	OrigDataRate	OrigDataStartFrame	OrigNumFrames
150.000000	150.000000	4	32	mm	150.000000	1125	4500
Frame#	Time	L.ASIS			L.Heel.Bottom			L.Heel.Lateral			L.Heel.Top			L.Iliac.Crest			L.MT5			L.PSIS			L.Shank.Bottom.Lateral			L.Shank.Bottom.Medial			L.Shank.Top.Lateral			L.Shank.Top.Medial			L.Thigh.Bottom.Lateral			L.Thigh.Bottom.Medial			L.Thigh.Top.Lateral			L.Thigh.Top.Medial			R.ASIS			R.ASY			R.Heel.Bottom			R.Heel.Lateral			R.Heel.Top			R.Iliac.Crest			R.MT1			R.MT5			R.PSIS			R.Shank.Bottom.Lateral			R.Shank.Bottom.Medial			R.Shank.Top.Lateral			R.Shank.Top.Medial			R.Thigh.Bottom.Lateral			R.Thigh.Bottom.Medial			R.Thigh.Top.Lateral			R.Thigh.Top.Medial			
		X1	Y1	Z1	X2	Y2	Z2	X3	Y3	Z3	X4	Y4	Z4	X5	Y5	Z5	X6	Y6	Z6	X7	Y7	Z7	X8	Y8	Z8	X9	Y9	Z9	X10	Y10	Z10	X11	Y11	Z11	X12	Y12	Z12	X13	Y13	Z13	X14	Y14	Z14	X15	Y15	Z15	X16	Y16	Z16	X17	Y17	Z17	X18	Y18	Z18	X19	Y19	Z19	X20	Y20	Z20	X21	Y21	Z21	X22	Y22	Z22	X23	Y23	Z23	X24	Y24	Z24	X25	Y25	Z25	X26	Y26	Z26	X27	Y27	Z27	X28	Y28	Z28	X29	Y29	Z29	X30	Y30	Z30	X31	Y31	Z31	X32	Y32	Z32	

1126	7.500000000000001	2142.338866428949	983.829492747377	926.363227646046	2015.112441830055	231.6005772219897	970.5340706152605	2044.168528695185	240.1374758099521	927.7373534125952	2044.997414911429	265.4818698173918	973.2728849277611	2050.933352968363	1055.879298812754	859.5208591639747	2178.597276801111	147.4736997255605	885.0746878266395	1957.992313843044	1019.761226363151	965.8011635999542	2154.204855143127	319.2212453726834	914.0692868316845	2116.326742783943	342.4664580244858	939.0012497847143	2190.502918451743	390.161067947419	897.3821505580778	2153.667541914249	417.3983950615793	924.321366301562	2271.237714738906	690.6465118182942	865.3312308063067	2228.337230156993	645.9015814787559	900.755102586333	2183.824241068438	754.497249624013	844.7828746414399	2142.664913811394	711.7690841245804	878.2135843292256	2119.78185268085	962.0785716605009	1152.10443538887	1639.362730470779	98.10790929175441	1060.082920998558	1486.633950252545	200.4043899098287	1017.368681653234	1507.321809925062	185.9180369728563	1068.789200780541	1520.337143282359	223.5553045076651	1030.655627989513	2067.94909146076	1043.033663156855	1190.030046010233	1641.784642054338	54.71227882765889	1000.016871870566	1591.362560876341	59.42377036768623	1106.750104306479	1956.929162114346	1016.962346119809	1071.300216186127	1603.684937975326	267.6596780225911	1102.902316809314	1587.308120643177	292.888216264442	1056.574631103813	1642.388917269977	336.2920041822837	1124.378110302746	1625.731644928218	359.8519807284282	1079.053226997364	1875.597711939812	640.555749407799	1177.46712288749	1830.948321235935	665.3850505246116	1125.522582989578	1909.291863641686	743.5462418690505	1192.905314864584	1868.185254365572	765.8048896628751	1142.023931217924	
1127	7.506666666666667	2142.788650922693	988.1601044490538	926.3902046434246	2044.496058018066	210.0480781311136	970.5125387374712	2072.88480364416	220.5218425533186	927.7428972333452	2071.666089431859	246.2073061677716	973.1634380273335	2051.668350581792	1061.777385427136	860.37179771864	2214.100358757401	138.167828914445	886.0817434594309	1959.738874598215	1024.616225983568	967.2353450817704	2176.059241124468	308.3313704436808	914.1389248434866	2136.668488387276	328.5996542399892	939.2728925952168	2206.767950350109	381.8364751806284	897.3459057227174	2168.034482323271	406.2501471990548	924.4578169792885	2271.379612253792	694.6176764999389	867.0504681858399	2227.663745877786	649.3918121361414	900.8321519233499	2184.40688506774	758.9153441991097	845.9884591253283	2142.618147215482	715.7731823372451	878.0207690577669	2123.262806338195	963.853497241472	1151.16919548696	1619.612645096667	103.9920505861088	1063.10319391125	1475.926254853492	218.7374145943396	1017.732652144169	1494.183532273237	202.0072372823454	1069.41880070828	1511.161959882916	238.8955945118208	1032.229576979899	2075.401878726759	1045.020516690611	1190.271770044449	1619.593209766168	60.46988876238145	1002.456073060142	1567.191502558893	67.68722721597645	1107.285048036929	1960.094407099094	1021.861080976147	1072.921069381236	1591.008498603682	279.1130096417272	1104.430674035907	1575.740706597641	303.310693699637	1057.128917194225	1630.208406535579	347.8162688768415	1124.917173485798	1614.461928808162	370.4544288039386	1078.762648533023	1869.457249965745	649.1929413429555	1176.647829112924	1826.569262520447	675.1315221394318	1123.609697151405	1905.968147398796	751.3212941972566	1192.111968097722	1866.925189766456	774.6041469720585	1139.867396931313	
1128	7.513333333333334	2142.957816779934	991.8656507515215	926.1725488122787	2074.975135452419	189.4965324066931	971.0092785009964	2102.479330841672	201.7995845508519	928.1840093806514	2099.217418935569	227.6885971825717	973.4635971632844	2051.986117378776	1067.175097095778	861.2353057314796	2249.56043750192	130.4046933036395	887.3442608586741	1961.281991673783	1029.193116657731	968.6429248308425	2197.987160848503	297.837970440738	914.3279816229938	2157.35236351065	315.0489935994717	939.7036277458442	2222.886935317455	373.4000261854134	897.2587843473286	2182.528740408261	394.8928709599573	924.5661210676474	2270.3823163721	697.1515339480171	868.5965790315457	2225.732042271512	651.6126170329751	900.7638876470658	2184.091394933387	762.2377382810025	847.1576590311909	2141.536093670313	718.8705594679876	877.8565079823748	2126.446074673871	965.6811041578084	1150.165419190684	1600.604727819341	111.3520459588491	1065.974340119536	1466.317467720387	237.3199861417656	1017.729195260418	1482.052553672085	218.7147469317202	1069.717655912785	1502.850621419818	254.5496352052545	1033.362705729939	2082.315634912394	1046.85385308693	1190.45767163103	1598.377097345326	67.68162654887696	1004.944566358895	1544.150518955157	77.68159359311937	1107.826804602718	1963.02395660001	1026.777488591376	1074.440597049737	1579.463814934239	290.8223534499124	1105.715444420842	1565.27630236578	314.1796656492741	1057.598691343981	1619.494779516083	359.3217515852605	1125.355261308499	1604.65517571671	381.2169755228613	1078.501273580423	1864.563072442758	656.9819760732707	1175.943367439026	1823.218308706345	683.7114068593689	1121.931890562225	1903.315510521952	758.3780086253469	1191.329877094483	1866.128402147594	782.3819375016262	1137.834322007271	
1129	7.52	2142.861391443143	994.9076143464472	925.7439942362389	2106.265617849632	170.1593939702487	972.1005080385219	2132.683470555121	184.1545908745346	929.127727412689	2127.380247860041	210.1144252582572	974.2323851828339	2051.883436076274	1071.943746219399	862.1033652926836	2284.662875543078	124.3097293727163	888.8850279659218	1962.587831113878	1033.426830409775	969.9982700866183	2219.760112913989	287.8553048534625	914.6615888119944	2178.147889688296	301.9549449607832	940.32175874427	2238.676829944029	364.9371307046039	897.1409051180956	2196.976996715799	383.4358744165451	924.6704767776098	2268.2344752561	698.2171705667018	869.8133535209284	2222.587684478513	652.5986607560394	900.5426245762964	2182.862003908908	764.4173112889304	848.1668549920805	2139.448748109468	721.074266591307	877.7274756578119	2129.270750468945	967.5936234721622	1149.123870845161	1582.351087706709	120.2772448527134	1068.527850433252	1457.468949145671	256.0594115807591	1017.39371137648	1470.749000369271	235.9856775061358	1069.699402755196	1495.066828852025	270.5077863236186	1034.008556765777	2088.52444405268	1048.694632478393	1190.522090487907	1578.103133896225	76.42823338567615	1007.316163288171	1522.399603172051	89.43741294435588	1108.351097564811	1965.653146480859	1031.618629255137	1075.846834082126	1568.931716213102	302.82850714264	1106.671455580212	1555.788619849571	325.6004574251245	1057.927348858598	1610.170950875779	370.790796025484	1125.648836862415	1596.233249729394	392.1799120040808	1078.250418755611	1861.008699005814	663.6949545496407	1175.416326970652	1820.898727290815	690.9462011727292	1120.627028194097	1901.439505805927	764.5075846250732	1190.667471397821	1865.764740991601	788.9865962187888	1136.143684144958	
